<svg width="24" height="24" viewBox="0 0 24 24" fill="none" xmlns="http://www.w3.org/2000/svg">
<path d="M12 0C8.87038 0 8.47966 0.015 7.25086 0.072C6.02398 0.132 5.18878 0.333 4.45438 0.63C3.69694 0.936 3.05374 1.347 2.41342 2.014C1.7731 2.681 1.37758 3.35 1.08478 4.14C0.79966 4.905 0.605741 5.775 0.5491 7.053C0.4915 8.333 0.47998 8.74 0.47998 12C0.47998 15.26 0.49438 15.667 0.5491 16.947C0.6067 18.224 0.79966 19.095 1.08478 19.86C1.37854 20.648 1.7731 21.319 2.41342 21.986C3.05374 22.652 3.69598 23.065 4.45438 23.37C5.18974 23.666 6.02494 23.869 7.25086 23.928C8.47966 23.988 8.87038 24 12 24C15.1296 24 15.5203 23.985 16.7491 23.928C17.975 23.868 18.8112 23.666 19.5456 23.37C20.3021 23.064 20.9462 22.652 21.5865 21.986C22.2259 21.319 22.6224 20.651 22.9152 19.86C23.1993 19.095 23.3942 18.224 23.4509 16.947C23.5085 15.667 23.52 15.26 23.52 12C23.52 8.74 23.5056 8.333 23.4509 7.053C23.3933 5.776 23.1993 4.904 22.9152 4.14C22.6214 3.351 22.2259 2.681 21.5865 2.014C20.9462 1.347 20.3049 0.935 19.5456 0.63C18.8112 0.333 17.975 0.131 16.7491 0.072C15.5203 0.012 15.1296 0 12 0ZM12 2.16C15.0749 2.16 15.4416 2.176 16.656 2.231C17.7792 2.286 18.3888 2.48 18.7939 2.646C19.3334 2.863 19.7155 3.123 20.1206 3.542C20.5229 3.962 20.7725 4.361 20.9808 4.923C21.1382 5.345 21.3264 5.98 21.3773 7.15C21.432 8.416 21.4445 8.796 21.4445 12C21.4445 15.204 21.4301 15.585 21.3734 16.85C21.3149 18.02 21.1277 18.655 20.9693 19.077C20.7542 19.639 20.5094 20.037 20.1062 20.459C19.704 20.878 19.3152 21.138 18.7814 21.355C18.3782 21.519 17.759 21.715 16.6358 21.768C15.4128 21.825 15.0528 21.838 11.9712 21.838C8.88862 21.838 8.52862 21.823 7.30654 21.764C6.18238 21.703 5.56318 21.508 5.15998 21.343C4.61374 21.119 4.23838 20.864 3.83614 20.444C3.43198 20.025 3.17374 19.62 2.97214 19.064C2.81374 18.644 2.6275 17.999 2.56894 16.829C2.52574 15.569 2.51038 15.18 2.51038 11.985C2.51038 8.789 2.52574 8.399 2.56894 7.124C2.6275 5.954 2.81374 5.31 2.97214 4.89C3.17374 4.32 3.43198 3.93 3.83614 3.509C4.23838 3.09 4.61374 2.82 5.15998 2.611C5.56318 2.445 6.16894 2.25 7.29214 2.19C8.51614 2.145 8.87614 2.13 11.9568 2.13L12 2.16ZM12 5.838C8.73118 5.838 6.08446 8.598 6.08446 12C6.08446 15.405 8.73406 18.162 12 18.162C15.2688 18.162 17.9155 15.402 17.9155 12C17.9155 8.595 15.2659 5.838 12 5.838ZM12 16C9.87838 16 8.15998 14.21 8.15998 12C8.15998 9.79 9.87838 8 12 8C14.1216 8 15.84 9.79 15.84 12C15.84 14.21 14.1216 16 12 16ZM19.5321 5.595C19.5321 6.39 18.912 7.035 18.1497 7.035C17.3865 7.035 16.7673 6.389 16.7673 5.595C16.7673 4.801 17.3875 4.156 18.1497 4.156C18.911 4.155 19.5321 4.801 19.5321 5.595Z" fill="#222222"/>
</svg>
