<svg width="24" height="20" viewBox="0 0 24 20" fill="none" xmlns="http://www.w3.org/2000/svg">
<path d="M23.4758 2.56909C22.6262 2.95809 21.719 3.22309 20.7638 3.34409C21.7373 2.73309 22.4861 1.77009 22.8403 0.621094C21.9273 1.17609 20.9155 1.58009 19.8384 1.80509C18.9782 0.846094 17.7523 0.246094 16.391 0.246094C13.7827 0.246094 11.6678 2.44909 11.6678 5.16309C11.6678 5.55309 11.711 5.92809 11.7897 6.28709C7.86334 6.09409 4.38334 4.13009 2.05438 1.16109C1.64446 1.88309 1.41502 2.72209 1.41502 3.63609C1.41502 5.34609 2.25022 6.84909 3.5155 7.73209C2.74078 7.70609 2.01214 7.48409 1.37662 7.11609V7.17709C1.37662 9.5621 3.0019 11.5511 5.16478 12.0041C4.7683 12.1151 4.34974 12.1751 3.92062 12.1751C3.61918 12.1751 3.33022 12.1451 3.04126 12.0891C3.64702 14.0421 5.38846 15.4661 7.4611 15.5061C5.8483 16.8251 3.80446 17.6111 1.60318 17.6111C1.22878 17.6111 0.85534 17.5881 0.47998 17.5441C2.58142 18.9381 5.05726 19.7531 7.7347 19.7531C16.4265 19.7531 21.1737 12.2571 21.1737 5.76709C21.1737 5.55809 21.1737 5.34709 21.1593 5.13709C22.0819 4.44809 22.8873 3.57709 23.5209 2.58909L23.4758 2.56909Z" fill="#222222"/>
</svg>
