<svg width="62" height="62" viewBox="0 0 62 62" fill="none" xmlns="http://www.w3.org/2000/svg">
<g filter="url(#filter0_d_2_100)">
<rect width="58" height="58" fill="#EEEEEE"/>
<rect x="1" y="1" width="56" height="56" stroke="#222222" stroke-width="2"/>
</g>
<g clip-path="url(#clip0_2_100)">
<path d="M26 30.187H19.25C18.4216 30.187 17.75 29.5154 17.75 28.687V19.687C17.75 18.8586 18.4216 18.187 19.25 18.187H31.25C32.0784 18.187 32.75 18.8586 32.75 19.687V26.437" stroke="black" stroke-width="1.5" stroke-linecap="round" stroke-linejoin="round"/>
<path fill-rule="evenodd" clip-rule="evenodd" d="M36.579 27.5999L39.165 28.8929C39.3975 29.009 39.6735 28.9964 39.8945 28.8597C40.1155 28.7231 40.25 28.4817 40.25 28.2219V20.1499C40.25 19.89 40.1155 19.6487 39.8945 19.512C39.6735 19.3754 39.3975 19.3628 39.165 19.4789L36.579 20.7719C36.0708 21.0261 35.7498 21.5456 35.75 22.1139V26.2599C35.7506 26.8274 36.0714 27.346 36.579 27.5999Z" stroke="black" stroke-width="1.5" stroke-linecap="round" stroke-linejoin="round"/>
<path fill-rule="evenodd" clip-rule="evenodd" d="M36.928 34.794L30.886 31.168C30.6543 31.0289 30.3657 31.0252 30.1306 31.1583C29.8954 31.2914 29.75 31.5408 29.75 31.811V39.062C29.75 39.3322 29.8954 39.5815 30.1306 39.7146C30.3657 39.8478 30.6543 39.8441 30.886 39.705L36.928 36.08C37.1543 35.9448 37.2929 35.7006 37.2929 35.437C37.2929 35.1734 37.1543 34.9292 36.928 34.794Z" stroke="black" stroke-width="1.5" stroke-linecap="round" stroke-linejoin="round"/>
</g>
<defs>
<filter id="filter0_d_2_100" x="0" y="0" width="62" height="62" filterUnits="userSpaceOnUse" color-interpolation-filters="sRGB">
<feFlood flood-opacity="0" result="BackgroundImageFix"/>
<feColorMatrix in="SourceAlpha" type="matrix" values="0 0 0 0 0 0 0 0 0 0 0 0 0 0 0 0 0 0 127 0" result="hardAlpha"/>
<feOffset dx="4" dy="4"/>
<feColorMatrix type="matrix" values="0 0 0 0 0.933333 0 0 0 0 0.933333 0 0 0 0 0.933333 0 0 0 1 0"/>
<feBlend mode="normal" in2="BackgroundImageFix" result="effect1_dropShadow_2_100"/>
<feBlend mode="normal" in="SourceGraphic" in2="effect1_dropShadow_2_100" result="shape"/>
</filter>
<clipPath id="clip0_2_100">
<rect width="24" height="24" fill="white" transform="translate(17 17)"/>
</clipPath>
</defs>
</svg>
