<svg width="62" height="62" viewBox="0 0 62 62" fill="none" xmlns="http://www.w3.org/2000/svg">
<g filter="url(#filter0_d_2_125)">
<rect width="58" height="58" fill="#EEEEEE"/>
<rect x="1" y="1" width="56" height="56" stroke="#222222" stroke-width="2"/>
</g>
<g clip-path="url(#clip0_2_125)">
<path fill-rule="evenodd" clip-rule="evenodd" d="M24.5 26C26.7782 26 28.625 24.1532 28.625 21.875C28.625 19.5968 26.7782 17.75 24.5 17.75C22.2218 17.75 20.375 19.5968 20.375 21.875C20.375 24.1532 22.2218 26 24.5 26Z" stroke="black" stroke-width="1.5" stroke-linecap="round" stroke-linejoin="round"/>
<path d="M29.21 29.4251C27.2696 27.5256 24.3791 26.9753 21.8765 28.029C19.3738 29.0827 17.7474 31.5347 17.75 34.2501" stroke="black" stroke-width="1.5" stroke-linecap="round" stroke-linejoin="round"/>
<path d="M38.75 32.75H32.75C31.9216 32.75 31.25 33.4216 31.25 34.25V38.75C31.25 39.5784 31.9216 40.25 32.75 40.25H38.75C39.5784 40.25 40.25 39.5784 40.25 38.75V34.25C40.25 33.4216 39.5784 32.75 38.75 32.75Z" stroke="black" stroke-width="1.5" stroke-linecap="round" stroke-linejoin="round"/>
<path fill-rule="evenodd" clip-rule="evenodd" d="M35.75 28.25C34.0931 28.25 32.75 29.5931 32.75 31.25V32.75H38.75V31.25C38.75 29.5931 37.4069 28.25 35.75 28.25Z" stroke="black" stroke-width="1.5" stroke-linecap="round" stroke-linejoin="round"/>
<path d="M35.75 36.1543C35.5429 36.1543 35.375 36.3221 35.375 36.5293C35.375 36.7364 35.5429 36.9043 35.75 36.9043C35.9571 36.9043 36.125 36.7364 36.125 36.5293C36.1253 36.4297 36.0858 36.3342 36.0155 36.2638C35.9451 36.1934 35.8495 36.154 35.75 36.1543Z" stroke="black" stroke-width="1.5" stroke-linecap="round" stroke-linejoin="round"/>
</g>
<defs>
<filter id="filter0_d_2_125" x="0" y="0" width="62" height="62" filterUnits="userSpaceOnUse" color-interpolation-filters="sRGB">
<feFlood flood-opacity="0" result="BackgroundImageFix"/>
<feColorMatrix in="SourceAlpha" type="matrix" values="0 0 0 0 0 0 0 0 0 0 0 0 0 0 0 0 0 0 127 0" result="hardAlpha"/>
<feOffset dx="4" dy="4"/>
<feColorMatrix type="matrix" values="0 0 0 0 0.933333 0 0 0 0 0.933333 0 0 0 0 0.933333 0 0 0 1 0"/>
<feBlend mode="normal" in2="BackgroundImageFix" result="effect1_dropShadow_2_125"/>
<feBlend mode="normal" in="SourceGraphic" in2="effect1_dropShadow_2_125" result="shape"/>
</filter>
<clipPath id="clip0_2_125">
<rect width="24" height="24" fill="white" transform="translate(17 17)"/>
</clipPath>
</defs>
</svg>
